<mxfile host="app.diagrams.net" agent="Mozilla/5.0 (Macintosh; Intel Mac OS X 10_15_7) AppleWebKit/537.36 (KHTML, like Gecko) Chrome/126.0.0.0 Safari/537.36" version="24.7.6">
  <diagram name="Page-1" id="aaaa8250-4180-3840-79b5-4cada1eebb92">
    <mxGraphModel dx="2385" dy="1515" grid="1" gridSize="10" guides="1" tooltips="1" connect="1" arrows="1" fold="1" page="1" pageScale="1" pageWidth="1100" pageHeight="850" background="none" math="0" shadow="0">
      <root>
        <mxCell id="0" />
        <mxCell id="1" parent="0" />
        <mxCell id="fiIT5-pdTNxK8UfcKWGM-1" value="Internet" style="rounded=0;whiteSpace=wrap;html=1;" vertex="1" parent="1">
          <mxGeometry x="225" y="20" width="120" height="60" as="geometry" />
        </mxCell>
        <mxCell id="fiIT5-pdTNxK8UfcKWGM-2" value="Load Balancer" style="rounded=1;whiteSpace=wrap;html=1;" vertex="1" parent="1">
          <mxGeometry x="190" y="230" width="190" height="60" as="geometry" />
        </mxCell>
        <mxCell id="fiIT5-pdTNxK8UfcKWGM-4" value="Cloudflare" style="rounded=0;whiteSpace=wrap;html=1;" vertex="1" parent="1">
          <mxGeometry x="225" y="110" width="120" height="60" as="geometry" />
        </mxCell>
        <mxCell id="fiIT5-pdTNxK8UfcKWGM-5" value="Frontend&lt;br&gt;Vue.js&lt;div&gt;Nginx Server&lt;/div&gt;" style="rounded=0;whiteSpace=wrap;html=1;" vertex="1" parent="1">
          <mxGeometry x="20" y="340" width="170" height="60" as="geometry" />
        </mxCell>
        <mxCell id="fiIT5-pdTNxK8UfcKWGM-6" value="Backend&amp;nbsp;&lt;div&gt;Laravel&lt;/div&gt;&lt;div&gt;Nginx Server&lt;/div&gt;" style="rounded=0;whiteSpace=wrap;html=1;" vertex="1" parent="1">
          <mxGeometry x="380" y="340" width="195" height="60" as="geometry" />
        </mxCell>
        <mxCell id="fiIT5-pdTNxK8UfcKWGM-7" value="Public IP&lt;div&gt;Allow:&lt;/div&gt;&lt;div&gt;-http: (port 80)&lt;/div&gt;&lt;div&gt;-https: (port 443)&lt;/div&gt;" style="text;html=1;align=center;verticalAlign=middle;whiteSpace=wrap;rounded=0;" vertex="1" parent="1">
          <mxGeometry x="840" y="340" width="110" height="130" as="geometry" />
        </mxCell>
        <mxCell id="fiIT5-pdTNxK8UfcKWGM-11" value="Database Replica Set" style="swimlane;startSize=20;horizontal=1;containerType=tree;newEdgeStyle={&quot;edgeStyle&quot;:&quot;elbowEdgeStyle&quot;,&quot;startArrow&quot;:&quot;none&quot;,&quot;endArrow&quot;:&quot;none&quot;};" vertex="1" parent="1">
          <mxGeometry x="290" y="450" width="280" height="220" as="geometry">
            <mxRectangle x="1320" y="520" width="160" height="30" as="alternateBounds" />
          </mxGeometry>
        </mxCell>
        <mxCell id="fiIT5-pdTNxK8UfcKWGM-12" value="" style="edgeStyle=elbowEdgeStyle;elbow=vertical;sourcePerimeterSpacing=0;targetPerimeterSpacing=0;startArrow=none;endArrow=none;rounded=0;curved=0;" edge="1" parent="fiIT5-pdTNxK8UfcKWGM-11" source="fiIT5-pdTNxK8UfcKWGM-14" target="fiIT5-pdTNxK8UfcKWGM-15">
          <mxGeometry relative="1" as="geometry" />
        </mxCell>
        <mxCell id="fiIT5-pdTNxK8UfcKWGM-13" value="" style="edgeStyle=elbowEdgeStyle;elbow=vertical;sourcePerimeterSpacing=0;targetPerimeterSpacing=0;startArrow=none;endArrow=none;rounded=0;curved=0;" edge="1" parent="fiIT5-pdTNxK8UfcKWGM-11" source="fiIT5-pdTNxK8UfcKWGM-14" target="fiIT5-pdTNxK8UfcKWGM-16">
          <mxGeometry relative="1" as="geometry" />
        </mxCell>
        <UserObject label="MongoDB Server" treeRoot="1" id="fiIT5-pdTNxK8UfcKWGM-14">
          <mxCell style="whiteSpace=wrap;html=1;align=center;treeFolding=1;treeMoving=1;newEdgeStyle={&quot;edgeStyle&quot;:&quot;elbowEdgeStyle&quot;,&quot;startArrow&quot;:&quot;none&quot;,&quot;endArrow&quot;:&quot;none&quot;};" vertex="1" parent="fiIT5-pdTNxK8UfcKWGM-11">
            <mxGeometry x="10" y="30" width="120" height="60" as="geometry" />
          </mxCell>
        </UserObject>
        <mxCell id="fiIT5-pdTNxK8UfcKWGM-15" value="Primary Node" style="whiteSpace=wrap;html=1;align=center;verticalAlign=middle;treeFolding=1;treeMoving=1;newEdgeStyle={&quot;edgeStyle&quot;:&quot;elbowEdgeStyle&quot;,&quot;startArrow&quot;:&quot;none&quot;,&quot;endArrow&quot;:&quot;none&quot;};" vertex="1" parent="fiIT5-pdTNxK8UfcKWGM-11">
          <mxGeometry x="160" y="30" width="100" height="60" as="geometry" />
        </mxCell>
        <mxCell id="fiIT5-pdTNxK8UfcKWGM-16" value="Secondary Node" style="whiteSpace=wrap;html=1;align=center;verticalAlign=middle;treeFolding=1;treeMoving=1;newEdgeStyle={&quot;edgeStyle&quot;:&quot;elbowEdgeStyle&quot;,&quot;startArrow&quot;:&quot;none&quot;,&quot;endArrow&quot;:&quot;none&quot;};" vertex="1" parent="fiIT5-pdTNxK8UfcKWGM-11">
          <mxGeometry x="20" y="130" width="100" height="60" as="geometry" />
        </mxCell>
        <mxCell id="fiIT5-pdTNxK8UfcKWGM-18" value="" style="swimlane;startSize=0;" vertex="1" parent="fiIT5-pdTNxK8UfcKWGM-11">
          <mxGeometry x="160" y="130" width="100" height="60" as="geometry">
            <mxRectangle x="1400" y="620" width="50" height="40" as="alternateBounds" />
          </mxGeometry>
        </mxCell>
        <mxCell id="fiIT5-pdTNxK8UfcKWGM-21" value="Arbiter Node" style="text;html=1;align=center;verticalAlign=middle;resizable=0;points=[];autosize=1;strokeColor=none;fillColor=none;" vertex="1" parent="fiIT5-pdTNxK8UfcKWGM-18">
          <mxGeometry x="5" y="10" width="90" height="30" as="geometry" />
        </mxCell>
        <mxCell id="fiIT5-pdTNxK8UfcKWGM-22" style="edgeStyle=elbowEdgeStyle;rounded=0;orthogonalLoop=1;jettySize=auto;html=1;startArrow=none;endArrow=none;exitX=1;exitY=0.75;exitDx=0;exitDy=0;entryX=0;entryY=0.5;entryDx=0;entryDy=0;" edge="1" parent="fiIT5-pdTNxK8UfcKWGM-11" source="fiIT5-pdTNxK8UfcKWGM-14" target="fiIT5-pdTNxK8UfcKWGM-18">
          <mxGeometry relative="1" as="geometry" />
        </mxCell>
        <mxCell id="fiIT5-pdTNxK8UfcKWGM-23" value="&lt;font style=&quot;font-size: 14px;&quot;&gt;Python Based Connectors&lt;/font&gt;&lt;div&gt;&lt;br&gt;&lt;/div&gt;" style="rounded=0;whiteSpace=wrap;html=1;" vertex="1" parent="1">
          <mxGeometry x="80" y="710" width="280" height="120" as="geometry" />
        </mxCell>
        <mxCell id="fiIT5-pdTNxK8UfcKWGM-25" value="&lt;font style=&quot;font-size: 18px;&quot;&gt;&lt;b&gt;Internet&lt;/b&gt;&lt;/font&gt;&lt;div&gt;&lt;span style=&quot;font-size: 18px;&quot;&gt;&lt;b&gt;&lt;br&gt;&lt;/b&gt;&lt;/span&gt;&lt;div&gt;&lt;font style=&quot;font-size: 14px;&quot;&gt;&lt;b style=&quot;&quot;&gt;Cloudflare &amp;amp; Load balancer&amp;nbsp;&lt;/b&gt;&lt;/font&gt;&lt;/div&gt;&lt;div&gt;&lt;font style=&quot;font-size: 18px;&quot;&gt;&lt;b&gt;&lt;br&gt;&lt;/b&gt;&lt;/font&gt;&lt;/div&gt;&lt;/div&gt;" style="rounded=0;whiteSpace=wrap;html=1;" vertex="1" parent="1">
          <mxGeometry x="931" y="50" width="240" height="110" as="geometry" />
        </mxCell>
        <mxCell id="fiIT5-pdTNxK8UfcKWGM-26" value="&lt;li style=&quot;text-align: justify;&quot;&gt;&lt;strong style=&quot;background-color: initial;&quot;&gt;&lt;span style=&quot;font-size: 24px;&quot;&gt;&lt;sub&gt;WHY&lt;/sub&gt;&lt;/span&gt;&lt;/strong&gt;&lt;/li&gt;&lt;li style=&quot;text-align: justify;&quot;&gt;&lt;sub&gt;&lt;strong&gt;Cloudflare as the Entry Point:&lt;/strong&gt; All incoming traffic first passes through Cloudflare, where security measures are applied.&lt;/sub&gt;&lt;/li&gt;&lt;li style=&quot;text-align: justify;&quot;&gt;&lt;sub&gt;&lt;strong&gt;Load Balancer:&lt;/strong&gt; After passing through Cloudflare, traffic is routed to the load balancer.&lt;/sub&gt;&lt;/li&gt;&lt;li style=&quot;text-align: justify;&quot;&gt;&lt;sub&gt;&lt;strong&gt;Internal Network:&lt;/strong&gt; The load balancer then distributes traffic to the appropriate backend services (frontend, backend, database).&lt;/sub&gt;&lt;/li&gt;" style="text;html=1;whiteSpace=wrap;overflow=hidden;rounded=0;align=center;" vertex="1" parent="1">
          <mxGeometry x="900" y="168" width="290" height="210" as="geometry" />
        </mxCell>
        <mxCell id="fiIT5-pdTNxK8UfcKWGM-27" value="&lt;font style=&quot;font-size: 18px;&quot;&gt;Load Balancer&lt;/font&gt;" style="rounded=0;whiteSpace=wrap;html=1;" vertex="1" parent="1">
          <mxGeometry x="950" y="370" width="230" height="70" as="geometry" />
        </mxCell>
        <mxCell id="fiIT5-pdTNxK8UfcKWGM-28" value="Server A" style="rounded=0;whiteSpace=wrap;html=1;" vertex="1" parent="1">
          <mxGeometry x="770" y="480" width="120" height="60" as="geometry" />
        </mxCell>
        <mxCell id="fiIT5-pdTNxK8UfcKWGM-29" value="Server B" style="rounded=0;whiteSpace=wrap;html=1;" vertex="1" parent="1">
          <mxGeometry x="931" y="480" width="120" height="60" as="geometry" />
        </mxCell>
        <mxCell id="fiIT5-pdTNxK8UfcKWGM-30" value="Server C" style="rounded=0;whiteSpace=wrap;html=1;" vertex="1" parent="1">
          <mxGeometry x="1090" y="480" width="120" height="60" as="geometry" />
        </mxCell>
        <mxCell id="fiIT5-pdTNxK8UfcKWGM-31" value="Server D" style="rounded=0;whiteSpace=wrap;html=1;" vertex="1" parent="1">
          <mxGeometry x="1250" y="480" width="120" height="60" as="geometry" />
        </mxCell>
        <mxCell id="fiIT5-pdTNxK8UfcKWGM-32" value="&lt;meta charset=&quot;utf-8&quot;&gt;&lt;strong&gt;Load Balancer:&lt;/strong&gt; The load balancer receives incoming traffic and distributes it across multiple backend servers according to a specific load balancing algorithm." style="text;html=1;align=center;verticalAlign=middle;whiteSpace=wrap;rounded=0;" vertex="1" parent="1">
          <mxGeometry x="790" y="590" width="430" height="30" as="geometry" />
        </mxCell>
        <mxCell id="fiIT5-pdTNxK8UfcKWGM-33" value="&lt;p&gt;&lt;strong&gt;Client to Load Balancer:&lt;/strong&gt;&lt;span style=&quot;background-color: initial;&quot;&gt;Clients (users) send HTTP/HTTPS requests to the application&#39;s public IP or domain name, which resolves to the load balancer.&lt;/span&gt;&lt;/p&gt;" style="text;html=1;align=center;verticalAlign=middle;whiteSpace=wrap;rounded=0;" vertex="1" parent="1">
          <mxGeometry x="790" y="630" width="420" height="90" as="geometry" />
        </mxCell>
        <mxCell id="fiIT5-pdTNxK8UfcKWGM-35" value="&lt;h1 style=&quot;margin-top: 0px;&quot;&gt;Resource Management&lt;/h1&gt;&lt;h3&gt;Specifying Resources for Servers&lt;/h3&gt;&lt;h4&gt;1. &lt;strong&gt;Frontend Server (Vue.js)&lt;/strong&gt;&lt;/h4&gt;&lt;ul&gt;&lt;li&gt;&lt;strong&gt;CPU:&lt;/strong&gt;&amp;nbsp;8 vCPUs&lt;/li&gt;&lt;li&gt;&lt;strong&gt;Memory:&lt;/strong&gt;&amp;nbsp;16 GB RAM&lt;/li&gt;&lt;li&gt;&lt;strong&gt;Storage:&lt;/strong&gt;&amp;nbsp;256 GB SSD&lt;/li&gt;&lt;/ul&gt;&lt;h4&gt;2. &lt;strong&gt;Backend Server (Laravel)&lt;/strong&gt;&lt;/h4&gt;&lt;ul&gt;&lt;li&gt;&lt;strong&gt;CPU:&lt;/strong&gt;&amp;nbsp;12 vCPUs&lt;/li&gt;&lt;li&gt;&lt;strong&gt;Memory:&lt;/strong&gt;&amp;nbsp;32 GB RAM&lt;/li&gt;&lt;li&gt;&lt;strong&gt;Storage:&lt;/strong&gt;&amp;nbsp;512 GB SSD&lt;/li&gt;&lt;/ul&gt;&lt;h4&gt;3. &lt;strong&gt;Database Server (MongoDB)&lt;/strong&gt;&lt;/h4&gt;&lt;ul&gt;&lt;li&gt;&lt;strong&gt;CPU:&lt;/strong&gt;&amp;nbsp;16 vCPUs&lt;/li&gt;&lt;li&gt;&lt;strong&gt;Memory:&lt;/strong&gt;&amp;nbsp;64 GB RAM&lt;/li&gt;&lt;li&gt;&lt;strong&gt;Storage:&lt;/strong&gt; 2 TB SSD (scalable based on data growth)&lt;/li&gt;&lt;/ul&gt;&lt;h4&gt;4. &lt;strong&gt;Python Connectors Server&lt;/strong&gt;&lt;/h4&gt;&lt;ul&gt;&lt;li&gt;&lt;strong&gt;CPU:&lt;/strong&gt;&amp;nbsp;8 vCPUs&lt;/li&gt;&lt;li&gt;&lt;strong&gt;Memory:&lt;/strong&gt;&amp;nbsp;16 GB RAM&lt;/li&gt;&lt;li&gt;&lt;strong&gt;Storage:&lt;/strong&gt;&amp;nbsp;512 GB SSD&lt;/li&gt;&lt;/ul&gt;" style="text;html=1;whiteSpace=wrap;overflow=hidden;rounded=0;" vertex="1" parent="1">
          <mxGeometry x="1420" y="20" width="480" height="470" as="geometry" />
        </mxCell>
        <mxCell id="fiIT5-pdTNxK8UfcKWGM-36" style="edgeStyle=orthogonalEdgeStyle;rounded=0;orthogonalLoop=1;jettySize=auto;html=1;exitX=0.5;exitY=1;exitDx=0;exitDy=0;" edge="1" parent="1" source="fiIT5-pdTNxK8UfcKWGM-35" target="fiIT5-pdTNxK8UfcKWGM-35">
          <mxGeometry relative="1" as="geometry" />
        </mxCell>
        <UserObject label="&lt;meta charset=&quot;utf-8&quot;&gt;&lt;div style=&quot;box-sizing: border-box; text-align: left; min-height: 1px; padding-left: 15px; padding-right: 15px; position: relative; float: left; width: 202.875px;&quot; class=&quot;col-lg-3 col-md-3 col-sm-12 col-xs-12 text-left&quot;&gt;&lt;div style=&quot;box-sizing: border-box; display: flex !important; flex-direction: column !important; align-items: baseline !important;&quot; class=&quot;product-first-container d-flex flex-column align-items-baseline&quot;&gt;&lt;div style=&quot;box-sizing: border-box; font-size: 1.4em; font-weight: 500;&quot; class=&quot;product-name-sf&quot;&gt;AX42&lt;/div&gt;&lt;strong style=&quot;box-sizing: border-box; font-weight: 500; display: block !important; font-size: 0.8rem; max-width: 150px; line-height: 1.5; color: rgb(245, 166, 35);&quot; class=&quot;d-block font-size-small sf-available-text&quot;&gt;Processing time: usually several working days&lt;/strong&gt;&lt;/div&gt;&lt;/div&gt;&lt;div style=&quot;box-sizing: border-box; min-height: 1px; padding-left: 15px; padding-right: 15px; position: relative; float: left; width: 338.125px; display: flex !important; flex-direction: column !important; align-items: baseline !important; margin-top: 0.5rem; margin-bottom: 0.5rem;&quot; class=&quot;col-lg-5 col-md-5 col-sm-12 col-xs-12 d-flex flex-column align-items-baseline my-2 my-md-0&quot;&gt;&lt;div style=&quot;box-sizing: border-box; text-align: left; display: grid; gap: 5px 10px; grid-template-columns: 1fr 6fr; line-height: 1.5rem;&quot; class=&quot;text-left sf-serverdata-grid&quot;&gt;&lt;span style=&quot;box-sizing: border-box; font-weight: 500; grid-column: 2 / 3;&quot; class=&quot;font-weight-bold&quot;&gt;AMD Ryzen™ 7 PRO 8700GE&lt;/span&gt;&lt;span style=&quot;box-sizing: border-box; font-weight: bold; grid-column: 1 / 2;&quot;&gt;CPU&lt;/span&gt;&lt;span style=&quot;box-sizing: border-box; grid-column: 2 / 3;&quot;&gt;8&lt;span&gt;&amp;nbsp;&lt;/span&gt;cores /&lt;span&gt;&amp;nbsp;&lt;/span&gt;16&lt;span&gt;&amp;nbsp;&lt;/span&gt;threads @&lt;span&gt;&amp;nbsp;&lt;/span&gt;3.65&lt;span&gt;&amp;nbsp;&lt;/span&gt;GHz&lt;/span&gt;&lt;span style=&quot;box-sizing: border-box; font-weight: bold; grid-column: 1 / 2;&quot;&gt;Generation:&lt;/span&gt;&lt;span style=&quot;box-sizing: border-box; grid-column: 2 / 3;&quot;&gt;Octa-Core Phoenix 1 (Zen4)&lt;/span&gt;&lt;span style=&quot;box-sizing: border-box; font-weight: bold; grid-column: 1 / 2;&quot;&gt;RAM&lt;/span&gt;&lt;span style=&quot;box-sizing: border-box; grid-column: 2 / 3;&quot;&gt;64 GB DDR5 ECC&lt;/span&gt;&lt;span style=&quot;box-sizing: border-box; font-weight: bold; grid-column: 1 / 2;&quot;&gt;Drives&lt;/span&gt;&lt;span style=&quot;box-sizing: border-box; grid-column: 2 / 3;&quot;&gt;&lt;span style=&quot;box-sizing: border-box;&quot;&gt;&lt;div style=&quot;box-sizing: border-box; list-style: none !important;&quot; class=&quot;list-style-none&quot;&gt;&lt;p style=&quot;box-sizing: border-box; margin: 0px; line-height: 1.6em;&quot; class=&quot;m-0&quot;&gt;min.&lt;span&gt;&amp;nbsp;&lt;/span&gt;2&lt;span&gt;&amp;nbsp;&lt;/span&gt;x&lt;span&gt;&amp;nbsp;&lt;/span&gt;512 GB NVMe SSD (Gen4)&lt;/p&gt;&lt;p style=&quot;box-sizing: border-box; margin: 0px; line-height: 1.6em;&quot; class=&quot;m-0&quot;&gt;Up to 2 x optional (at additional cost)&lt;/p&gt;&lt;p style=&quot;box-sizing: border-box; margin: 0px; line-height: 1.6em;&quot; class=&quot;m-0&quot;&gt;NVMe, SATA and HDD available&lt;/p&gt;&lt;/div&gt;&lt;/span&gt;&lt;/span&gt;&lt;span style=&quot;box-sizing: border-box; font-weight: bold; grid-column: 1 / 2;&quot;&gt;Locations&lt;/span&gt;&lt;div style=&quot;box-sizing: border-box; grid-column: 2 / 3;&quot;&gt;&lt;span style=&quot;box-sizing: border-box; background-position: 50% center; background-repeat: no-repeat; background-size: cover; display: inline-block; line-height: 1em; position: relative; width: 1.33333em; background-image: url(&amp;quot;images/de.adc6c9b3594fb2f4a4df.svg&amp;quot;); margin-right: 5px; box-shadow: rgba(0, 0, 0, 0.2) 0px 0px 1px 1px inset;&quot; data-original-title=&quot;Deutschland, FSN1&quot; data-toggle=&quot;tooltip&quot; class=&quot;special-tag fi fi-de&quot;&gt;&amp;nbsp;&lt;/span&gt;&lt;span style=&quot;box-sizing: border-box; background-position: 50% center; background-repeat: no-repeat; background-size: cover; display: inline-block; line-height: 1em; position: relative; width: 1.33333em; background-image: url(&amp;quot;images/fi.ead68a19c50e3e6f4d04.svg&amp;quot;); margin-right: 5px; box-shadow: rgba(0, 0, 0, 0.2) 0px 0px 1px 1px inset;&quot; data-original-title=&quot;Finland, HEL1&quot; data-toggle=&quot;tooltip&quot; class=&quot;special-tag fi fi-fi&quot;&gt;&amp;nbsp;&lt;/span&gt;&lt;/div&gt;&lt;span style=&quot;box-sizing: border-box; font-weight: bold; grid-column: 1 / 2;&quot;&gt;Information&lt;/span&gt;&lt;span style=&quot;box-sizing: border-box; display: flex !important; align-items: center !important; grid-column: 2 / 3;&quot; class=&quot;d-flex align-items-center&quot;&gt;&lt;ul style=&quot;box-sizing: border-box; margin-bottom: 0px; margin-top: 0px; line-height: 1.4em; list-style: none; padding-left: 0px; margin-left: 0px;&quot; class=&quot;list-unstyled list-inline list-product-specs list-product-specs-sb&quot;&gt;&lt;li style=&quot;box-sizing: border-box; display: inline-block; padding: 0px;&quot;&gt;&lt;span style=&quot;box-sizing: border-box; border-radius: 3px; font-size: 12px; font-weight: 500; margin-right: 0px; padding: 1px 4px; white-space: nowrap; background-color: rgb(89, 162, 25); color: rgb(255, 255, 255);&quot; class=&quot;special-tag&quot;&gt;IPv4&lt;/span&gt;&lt;/li&gt;&lt;/ul&gt;&lt;/span&gt;&lt;/div&gt;&lt;/div&gt;&lt;div style=&quot;box-sizing: border-box; min-height: 1px; padding: 0px 10px; position: relative; float: left; width: 67.6172px; display: flex !important; align-items: center !important; justify-content: center !important;&quot; class=&quot;col-xs-12 col-sm-12 col-md-1 col-lg-1 justify-content-md-center align-items-center d-flex&quot;&gt;&lt;/div&gt;&lt;div style=&quot;box-sizing: border-box; min-height: 1px; padding-left: 15px; padding-right: 15px; position: relative; float: left; width: 202.875px; display: flex !important; flex-direction: column !important; align-items: flex-start !important; gap: 1rem;&quot; class=&quot;col-lg-3 col-md-3 col-sm-12 col-xs-12 align-items-start d-flex flex-column sf-order-column mt-3-sm&quot;&gt;&lt;div style=&quot;box-sizing: border-box; display: flex !important; flex-direction: row !important; justify-content: space-between !important; align-items: flex-end !important; width: 172.875px;&quot; class=&quot;align-items-end d-flex flex-row justify-content-between w-100&quot;&gt;&lt;div style=&quot;box-sizing: border-box; display: flex !important; flex-direction: column !important; font-size: 1.625rem; font-weight: 500; letter-spacing: -0.52px; line-height: 23.4px; color: rgb(56, 56, 56);&quot; class=&quot;product-price-sf d-flex flex-column&quot;&gt;&lt;div style=&quot;box-sizing: border-box; font-weight: 400; line-height: 28.16px; font-family: Inter, sans-serif; font-size: 0.8rem; font-style: normal;&quot; class=&quot;from_label font-weight-normal&quot;&gt;starting from&lt;/div&gt;&lt;div style=&quot;box-sizing: border-box;&quot;&gt;€54.74&lt;/div&gt;&lt;div style=&quot;box-sizing: border-box; font-weight: 400; font-family: Inter, sans-serif; font-size: 13px; font-style: normal; line-height: 20.8px;&quot; class=&quot;max_per_month_label font-weight-normal&quot;&gt;max. per month&lt;/div&gt;&lt;/div&gt;&lt;div style=&quot;box-sizing: border-box; display: flex !important; flex-direction: column !important; align-items: flex-end !important;&quot; class=&quot;align-items-end d-flex flex-column&quot;&gt;&lt;div style=&quot;box-sizing: border-box; color: rgb(115, 115, 115); font-size: 1rem; font-weight: 500; letter-spacing: -0.32px; line-height: 19.2px;&quot; class=&quot;sf-hourprice&quot;&gt;€0.0877&lt;/div&gt;&lt;div style=&quot;box-sizing: border-box; font-weight: 400; color: rgb(115, 115, 115); font-size: 13px; line-height: 20.8px;&quot; class=&quot;per_hour_label font-weight-normal&quot;&gt;per hour&lt;/div&gt;&lt;/div&gt;&lt;/div&gt;&lt;div style=&quot;box-sizing: border-box; display: flex !important; justify-content: space-between !important; font-size: 0.8rem; width: 172.875px; line-height: 1.5;&quot; class=&quot;font-size-small d-flex justify-content-between w-100&quot;&gt;&lt;div style=&quot;box-sizing: border-box; display: flex !important; justify-content: space-between !important; align-items: baseline !important; width: 172.875px;&quot; class=&quot;align-items-baseline d-flex w-100 justify-content-between&quot;&gt;&lt;div style=&quot;box-sizing: border-box; font-size: 13px; font-weight: 400; line-height: 20.8px;&quot; class=&quot;sf-setup-tag&quot;&gt;setup fee&lt;/div&gt;€46.41&lt;/div&gt;&lt;/div&gt;&lt;div style=&quot;box-sizing: border-box; display: inline-flex !important; flex-direction: column !important; width: 172.875px;&quot; class=&quot;d-inline-flex flex-column w-100&quot;&gt;&lt;a style=&quot;box-sizing: border-box; background-color: rgb(255, 255, 255); color: rgb(56, 56, 56); text-decoration: none; font-weight: 500; background-image: none; border: 0px; border-radius: 4px; cursor: pointer; display: block; font-size: 14px; line-height: 21px; margin-bottom: 0.5rem; padding: 6px 12px; text-align: center; touch-action: manipulation; user-select: none; vertical-align: middle; white-space: nowrap; width: 172.875px; font-family: Montserrat, sans-serif; text-transform: none; letter-spacing: -0.257px; box-shadow: rgb(56, 56, 56) 0px 0px 0px 2px inset; transition: all 0.2s ease 0s; font-style: normal; font-variant-ligatures: normal; font-variant-caps: normal; orphans: 2; text-indent: 0px; widows: 2; word-spacing: 0px; -webkit-text-stroke-width: 0px;&quot; class=&quot;mb-2 sf-order-button btn btn-black-light btn-md btn-block&quot;&gt;Configure&lt;/a&gt;&lt;div style=&quot;box-sizing: border-box; display: flex !important; flex-direction: row !important; justify-content: center !important; color: rgb(51, 51, 51); font-family: Inter, sans-serif; font-size: 14px; font-style: normal; font-variant-ligatures: normal; font-variant-caps: normal; font-weight: 400; letter-spacing: -0.32px; orphans: 2; text-align: left; text-indent: 0px; text-transform: none; widows: 2; word-spacing: 0px; -webkit-text-stroke-width: 0px; white-space: normal; background-color: rgb(255, 255, 255); text-decoration-thickness: initial; text-decoration-style: initial; text-decoration-color: initial;&quot; class=&quot;d-flex flex-row  justify-content-center&quot;&gt;&lt;br class=&quot;Apple-interchange-newline&quot;&gt;&lt;/div&gt;&lt;/div&gt;&lt;/div&gt;" link="&lt;meta charset=&quot;utf-8&quot;&gt;&lt;div style=&quot;box-sizing: border-box; text-align: left; min-height: 1px; padding-left: 15px; padding-right: 15px; position: relative; float: left; width: 202.875px;&quot; class=&quot;col-lg-3 col-md-3 col-sm-12 col-xs-12 text-left&quot;&gt;&lt;div style=&quot;box-sizing: border-box; display: flex !important; flex-direction: column !important; align-items: baseline !important;&quot; class=&quot;product-first-container d-flex flex-column align-items-baseline&quot;&gt;&lt;div style=&quot;box-sizing: border-box; font-size: 1.4em; font-weight: 500;&quot; class=&quot;product-name-sf&quot;&gt;AX42&lt;/div&gt;&lt;strong style=&quot;box-sizing: border-box; font-weight: 500; display: block !important; font-size: 0.8rem; max-width: 150px; line-height: 1.5; color: rgb(245, 166, 35);&quot; class=&quot;d-block font-size-small sf-available-text&quot;&gt;Processing time: usually several working days&lt;/strong&gt;&lt;/div&gt;&lt;/div&gt;&lt;div style=&quot;box-sizing: border-box; min-height: 1px; padding-left: 15px; padding-right: 15px; position: relative; float: left; width: 338.125px; display: flex !important; flex-direction: column !important; align-items: baseline !important; margin-top: 0.5rem; margin-bottom: 0.5rem;&quot; class=&quot;col-lg-5 col-md-5 col-sm-12 col-xs-12 d-flex flex-column align-items-baseline my-2 my-md-0&quot;&gt;&lt;div style=&quot;box-sizing: border-box; text-align: left; display: grid; gap: 5px 10px; grid-template-columns: 1fr 6fr; line-height: 1.5rem;&quot; class=&quot;text-left sf-serverdata-grid&quot;&gt;&lt;span style=&quot;box-sizing: border-box; font-weight: 500; grid-column: 2 / 3;&quot; class=&quot;font-weight-bold&quot;&gt;AMD Ryzen™ 7 PRO 8700GE&lt;/span&gt;&lt;span style=&quot;box-sizing: border-box; font-weight: bold; grid-column: 1 / 2;&quot;&gt;CPU&lt;/span&gt;&lt;span style=&quot;box-sizing: border-box; grid-column: 2 / 3;&quot;&gt;8&lt;span&gt;&amp;nbsp;&lt;/span&gt;cores /&lt;span&gt;&amp;nbsp;&lt;/span&gt;16&lt;span&gt;&amp;nbsp;&lt;/span&gt;threads @&lt;span&gt;&amp;nbsp;&lt;/span&gt;3.65&lt;span&gt;&amp;nbsp;&lt;/span&gt;GHz&lt;/span&gt;&lt;span style=&quot;box-sizing: border-box; font-weight: bold; grid-column: 1 / 2;&quot;&gt;Generation:&lt;/span&gt;&lt;span style=&quot;box-sizing: border-box; grid-column: 2 / 3;&quot;&gt;Octa-Core Phoenix 1 (Zen4)&lt;/span&gt;&lt;span style=&quot;box-sizing: border-box; font-weight: bold; grid-column: 1 / 2;&quot;&gt;RAM&lt;/span&gt;&lt;span style=&quot;box-sizing: border-box; grid-column: 2 / 3;&quot;&gt;64 GB DDR5 ECC&lt;/span&gt;&lt;span style=&quot;box-sizing: border-box; font-weight: bold; grid-column: 1 / 2;&quot;&gt;Drives&lt;/span&gt;&lt;span style=&quot;box-sizing: border-box; grid-column: 2 / 3;&quot;&gt;&lt;span style=&quot;box-sizing: border-box;&quot;&gt;&lt;div style=&quot;box-sizing: border-box; list-style: none !important;&quot; class=&quot;list-style-none&quot;&gt;&lt;p style=&quot;box-sizing: border-box; margin: 0px; line-height: 1.6em;&quot; class=&quot;m-0&quot;&gt;min.&lt;span&gt;&amp;nbsp;&lt;/span&gt;2&lt;span&gt;&amp;nbsp;&lt;/span&gt;x&lt;span&gt;&amp;nbsp;&lt;/span&gt;512 GB NVMe SSD (Gen4)&lt;/p&gt;&lt;p style=&quot;box-sizing: border-box; margin: 0px; line-height: 1.6em;&quot; class=&quot;m-0&quot;&gt;Up to 2 x optional (at additional cost)&lt;/p&gt;&lt;p style=&quot;box-sizing: border-box; margin: 0px; line-height: 1.6em;&quot; class=&quot;m-0&quot;&gt;NVMe, SATA and HDD available&lt;/p&gt;&lt;/div&gt;&lt;/span&gt;&lt;/span&gt;&lt;span style=&quot;box-sizing: border-box; font-weight: bold; grid-column: 1 / 2;&quot;&gt;Locations&lt;/span&gt;&lt;div style=&quot;box-sizing: border-box; grid-column: 2 / 3;&quot;&gt;&lt;span style=&quot;box-sizing: border-box; background-position: 50% center; background-repeat: no-repeat; background-size: cover; display: inline-block; line-height: 1em; position: relative; width: 1.33333em; background-image: url(&amp;quot;images/de.adc6c9b3594fb2f4a4df.svg&amp;quot;); margin-right: 5px; box-shadow: rgba(0, 0, 0, 0.2) 0px 0px 1px 1px inset;&quot; data-original-title=&quot;Deutschland, FSN1&quot; data-toggle=&quot;tooltip&quot; class=&quot;special-tag fi fi-de&quot;&gt;&amp;nbsp;&lt;/span&gt;&lt;span style=&quot;box-sizing: border-box; background-position: 50% center; background-repeat: no-repeat; background-size: cover; display: inline-block; line-height: 1em; position: relative; width: 1.33333em; background-image: url(&amp;quot;images/fi.ead68a19c50e3e6f4d04.svg&amp;quot;); margin-right: 5px; box-shadow: rgba(0, 0, 0, 0.2) 0px 0px 1px 1px inset;&quot; data-original-title=&quot;Finland, HEL1&quot; data-toggle=&quot;tooltip&quot; class=&quot;special-tag fi fi-fi&quot;&gt;&amp;nbsp;&lt;/span&gt;&lt;/div&gt;&lt;span style=&quot;box-sizing: border-box; font-weight: bold; grid-column: 1 / 2;&quot;&gt;Information&lt;/span&gt;&lt;span style=&quot;box-sizing: border-box; display: flex !important; align-items: center !important; grid-column: 2 / 3;&quot; class=&quot;d-flex align-items-center&quot;&gt;&lt;ul style=&quot;box-sizing: border-box; margin-bottom: 0px; margin-top: 0px; line-height: 1.4em; list-style: none; padding-left: 0px; margin-left: 0px;&quot; class=&quot;list-unstyled list-inline list-product-specs list-product-specs-sb&quot;&gt;&lt;li style=&quot;box-sizing: border-box; display: inline-block; padding: 0px;&quot;&gt;&lt;span style=&quot;box-sizing: border-box; border-radius: 3px; font-size: 12px; font-weight: 500; margin-right: 0px; padding: 1px 4px; white-space: nowrap; background-color: rgb(89, 162, 25); color: rgb(255, 255, 255);&quot; class=&quot;special-tag&quot;&gt;IPv4&lt;/span&gt;&lt;/li&gt;&lt;/ul&gt;&lt;/span&gt;&lt;/div&gt;&lt;/div&gt;&lt;div style=&quot;box-sizing: border-box; min-height: 1px; padding: 0px 10px; position: relative; float: left; width: 67.6172px; display: flex !important; align-items: center !important; justify-content: center !important;&quot; class=&quot;col-xs-12 col-sm-12 col-md-1 col-lg-1 justify-content-md-center align-items-center d-flex&quot;&gt;&lt;/div&gt;&lt;div style=&quot;box-sizing: border-box; min-height: 1px; padding-left: 15px; padding-right: 15px; position: relative; float: left; width: 202.875px; display: flex !important; flex-direction: column !important; align-items: flex-start !important; gap: 1rem;&quot; class=&quot;col-lg-3 col-md-3 col-sm-12 col-xs-12 align-items-start d-flex flex-column sf-order-column mt-3-sm&quot;&gt;&lt;div style=&quot;box-sizing: border-box; display: flex !important; flex-direction: row !important; justify-content: space-between !important; align-items: flex-end !important; width: 172.875px;&quot; class=&quot;align-items-end d-flex flex-row justify-content-between w-100&quot;&gt;&lt;div style=&quot;box-sizing: border-box; display: flex !important; flex-direction: column !important; font-size: 1.625rem; font-weight: 500; letter-spacing: -0.52px; line-height: 23.4px; color: rgb(56, 56, 56);&quot; class=&quot;product-price-sf d-flex flex-column&quot;&gt;&lt;div style=&quot;box-sizing: border-box; font-weight: 400; line-height: 28.16px; font-family: Inter, sans-serif; font-size: 0.8rem; font-style: normal;&quot; class=&quot;from_label font-weight-normal&quot;&gt;starting from&lt;/div&gt;&lt;div style=&quot;box-sizing: border-box;&quot;&gt;€54.74&lt;/div&gt;&lt;div style=&quot;box-sizing: border-box; font-weight: 400; font-family: Inter, sans-serif; font-size: 13px; font-style: normal; line-height: 20.8px;&quot; class=&quot;max_per_month_label font-weight-normal&quot;&gt;max. per month&lt;/div&gt;&lt;/div&gt;&lt;div style=&quot;box-sizing: border-box; display: flex !important; flex-direction: column !important; align-items: flex-end !important;&quot; class=&quot;align-items-end d-flex flex-column&quot;&gt;&lt;div style=&quot;box-sizing: border-box; color: rgb(115, 115, 115); font-size: 1rem; font-weight: 500; letter-spacing: -0.32px; line-height: 19.2px;&quot; class=&quot;sf-hourprice&quot;&gt;€0.0877&lt;/div&gt;&lt;div style=&quot;box-sizing: border-box; font-weight: 400; color: rgb(115, 115, 115); font-size: 13px; line-height: 20.8px;&quot; class=&quot;per_hour_label font-weight-normal&quot;&gt;per hour&lt;/div&gt;&lt;/div&gt;&lt;/div&gt;&lt;div style=&quot;box-sizing: border-box; display: flex !important; justify-content: space-between !important; font-size: 0.8rem; width: 172.875px; line-height: 1.5;&quot; class=&quot;font-size-small d-flex justify-content-between w-100&quot;&gt;&lt;div style=&quot;box-sizing: border-box; display: flex !important; justify-content: space-between !important; align-items: baseline !important; width: 172.875px;&quot; class=&quot;align-items-baseline d-flex w-100 justify-content-between&quot;&gt;&lt;div style=&quot;box-sizing: border-box; font-size: 13px; font-weight: 400; line-height: 20.8px;&quot; class=&quot;sf-setup-tag&quot;&gt;setup fee&lt;/div&gt;€46.41&lt;/div&gt;&lt;/div&gt;&lt;div style=&quot;box-sizing: border-box; display: inline-flex !important; flex-direction: column !important; width: 172.875px;&quot; class=&quot;d-inline-flex flex-column w-100&quot;&gt;&lt;a style=&quot;box-sizing: border-box; background-color: rgb(255, 255, 255); color: rgb(56, 56, 56); text-decoration: none; font-weight: 500; background-image: none; border: 0px; border-radius: 4px; cursor: pointer; display: block; font-size: 14px; line-height: 21px; margin-bottom: 0.5rem; padding: 6px 12px; text-align: center; touch-action: manipulation; user-select: none; vertical-align: middle; white-space: nowrap; width: 172.875px; font-family: Montserrat, sans-serif; text-transform: none; letter-spacing: -0.257px; box-shadow: rgb(56, 56, 56) 0px 0px 0px 2px inset; transition: all 0.2s ease 0s; font-style: normal; font-variant-ligatures: normal; font-variant-caps: normal; orphans: 2; text-indent: 0px; widows: 2; word-spacing: 0px; -webkit-text-stroke-width: 0px;&quot; class=&quot;mb-2 sf-order-button btn btn-black-light btn-md btn-block&quot;&gt;Configure&lt;/a&gt;&lt;div style=&quot;box-sizing: border-box; display: flex !important; flex-direction: row !important; justify-content: center !important; color: rgb(51, 51, 51); font-family: Inter, sans-serif; font-size: 14px; font-style: normal; font-variant-ligatures: normal; font-variant-caps: normal; font-weight: 400; letter-spacing: -0.32px; orphans: 2; text-align: left; text-indent: 0px; text-transform: none; widows: 2; word-spacing: 0px; -webkit-text-stroke-width: 0px; white-space: normal; background-color: rgb(255, 255, 255); text-decoration-thickness: initial; text-decoration-style: initial; text-decoration-color: initial;&quot; class=&quot;d-flex flex-row  justify-content-center&quot;&gt;&lt;br class=&quot;Apple-interchange-newline&quot;&gt;&lt;/div&gt;&lt;/div&gt;&lt;/div&gt;" id="fiIT5-pdTNxK8UfcKWGM-37">
          <mxCell style="text;html=1;align=center;verticalAlign=middle;whiteSpace=wrap;rounded=0;" vertex="1" parent="1">
            <mxGeometry x="1770" y="160" width="510" height="340" as="geometry" />
          </mxCell>
        </UserObject>
      </root>
    </mxGraphModel>
  </diagram>
</mxfile>
